<svg width="42" height="36" viewBox="0 0 42 36" fill="none" xmlns="http://www.w3.org/2000/svg">
<g clip-path="url(#clip0_1416_2645)">
<path d="M28.1612 11.8139C28.4528 11.9581 28.6557 12.1571 28.7965 12.4547C29.5207 14.643 29.5267 17.9606 28.9658 20.1977C28.9507 20.2582 28.9356 20.3187 28.92 20.381C28.6567 21.3782 28.2077 22.2503 27.6785 23.1279C27.6244 23.2185 27.5704 23.3092 27.5147 23.4026C27.1232 24.0272 26.655 24.5513 26.1497 25.0814C26.0988 25.138 26.0479 25.1947 25.9954 25.2531C25.1596 26.1565 24.0772 26.8483 23.0118 27.4418C22.9353 27.4846 22.9353 27.4846 22.8573 27.5283C21.4633 28.297 19.6483 29.087 18.0384 28.6628C15.6768 27.833 13.1242 26.0161 11.9083 23.7791C11.9083 23.7253 11.9083 23.6716 11.9083 23.6163C11.8552 23.5894 11.8021 23.5625 11.7474 23.5349C11.6729 23.4095 11.6729 23.4095 11.5959 23.2458C11.5671 23.1848 11.5383 23.1238 11.5086 23.061C11.4779 22.9941 11.4472 22.9272 11.4155 22.8583C11.3832 22.7881 11.3509 22.7179 11.3176 22.6455C10.1357 20.0498 8.56093 16.503 8.60949 13.6046C9.10627 13.6571 9.578 13.7557 10.0622 13.8784C10.1379 13.8974 10.2137 13.9164 10.2917 13.9359C10.4512 13.976 10.6107 14.0163 10.7701 14.0568C11.0118 14.1181 11.2537 14.1783 11.4957 14.2385C11.6515 14.2778 11.8073 14.3171 11.963 14.3566C12.0343 14.3742 12.1056 14.3919 12.179 14.4101C13.5176 14.7535 13.5176 14.7535 13.8394 15.1511C14.1064 15.9615 13.8199 16.9272 13.6835 17.7456C13.4539 19.0054 13.4539 19.0054 13.3566 20.279C13.3832 20.3059 13.4097 20.3328 13.4371 20.3604C13.5988 19.8522 13.7511 19.3499 13.8638 18.8282C14.1427 17.5712 14.6973 16.6112 15.6095 15.7209C15.6722 15.6559 15.735 15.5908 15.7996 15.5238C16.3537 14.9774 17.0084 14.5951 17.7014 14.2558C17.7515 14.2309 17.8016 14.2061 17.8532 14.1805C18.3143 13.9771 18.7346 13.9963 19.2302 14.0167C21.8396 14.0659 24.7748 13.301 27.0348 11.9767C27.4034 11.764 27.7446 11.742 28.1612 11.8139Z" fill="white"/>
<path d="M37.519 1.79219C37.5759 1.7918 37.6328 1.79141 37.6913 1.79102C37.9423 1.79184 38.1391 1.80288 38.3789 1.88376C38.2985 2.12794 38.2985 2.12794 38.1531 2.22134C38.0907 2.25054 38.0284 2.27973 37.9641 2.30981C37.8954 2.34284 37.8266 2.37587 37.7558 2.40991C37.6827 2.44445 37.6095 2.47899 37.5341 2.51457C36.4375 3.00485 36.4375 3.00485 35.7238 3.91864C35.6489 4.42359 35.7471 4.71261 36.0453 5.12208C36.4696 5.59654 37.0218 5.91166 37.5562 6.24342C38.0534 6.55219 38.5355 6.86922 38.9975 7.23041C39.0428 7.26518 39.0882 7.29994 39.1349 7.33576C39.5869 7.69791 39.9346 8.12837 40.0519 8.70914C40.1173 9.39197 39.9069 10.0659 39.7249 10.7152C39.5509 11.3722 39.4705 12.072 39.7468 12.7093C40.0722 13.1735 40.4523 13.5872 40.8384 13.9993C41.5439 14.7563 42.0452 15.3324 42.0568 16.4072C42.047 16.6733 42.0033 16.8539 41.8736 17.0859C41.6238 17.3175 41.3796 17.4213 41.0643 17.5371C41.0095 17.5586 40.9548 17.58 40.8983 17.6021C40.4989 17.7559 40.4989 17.7559 40.31 17.7559C40.3168 18.8208 40.3533 19.8072 40.6997 20.8193C40.8434 21.2422 40.9121 21.6215 40.8732 22.0698C40.7745 22.2695 40.6931 22.393 40.5514 22.5582C40.5023 22.6154 40.4532 22.6725 40.4027 22.7315C39.5166 23.693 38.4193 24.0404 37.2173 24.4303C35.9473 24.843 34.8414 25.2827 33.7726 26.1141C33.6409 26.2143 33.5091 26.3143 33.3772 26.4143C33.3122 26.4638 33.2471 26.5133 33.1801 26.5644C32.2328 27.2799 31.2518 27.943 30.2525 28.5814C30.1835 28.6257 30.1145 28.6699 30.0435 28.7155C29.5533 29.0293 29.0604 29.3379 28.5629 29.6396C28.514 29.6693 28.4652 29.6991 28.4148 29.7298C26.8948 30.6373 24.5942 30.6331 22.9206 30.2138C22.454 30.0406 22.0814 29.8159 21.8042 29.3954C21.7891 29.197 21.7891 29.197 21.8847 28.9884C22.0426 28.8926 22.2059 28.829 22.3769 28.7598C23.2006 28.4154 23.9511 27.935 24.6907 27.4368C24.7605 27.3898 24.8303 27.3428 24.9022 27.2944C25.6634 26.7744 26.3618 26.2026 27.0341 25.5698C27.0947 25.5148 27.1553 25.4598 27.2177 25.4032C28.0625 24.6027 28.625 23.6372 28.978 22.5268C29.0284 22.3683 29.0799 22.2101 29.1321 22.0522C29.7178 20.2776 30.0177 18.6471 30.106 16.7788C30.1692 15.6103 30.1692 15.6103 30.5473 15.1515C31.2024 14.6644 31.9716 14.1917 32.7468 13.9303C33.8412 11.8746 33.3851 9.48995 32.9077 7.33725C32.8811 7.25666 32.8546 7.17608 32.8272 7.09306C31.2466 7.58484 30.1225 10.4398 29.3675 11.814C29.3144 11.814 29.2612 11.814 29.2065 11.814C29.0514 9.22812 30.7033 6.06012 32.3641 4.16263C32.541 3.96856 32.7251 3.78163 32.9077 3.59306C32.9672 3.52129 33.0268 3.44952 33.0881 3.37558C33.8547 2.49003 35.0858 2.09153 36.2065 1.88376C36.3061 1.86529 36.4057 1.84682 36.5083 1.8278C36.844 1.79246 37.1818 1.79412 37.519 1.79219Z" fill="white"/>
<path d="M9.89674 2.7791C9.83636 3.04288 9.747 3.2522 9.62016 3.49131C9.20624 4.32152 9.11843 5.14585 9.37878 6.05017C9.59827 6.70906 9.8687 7.34913 10.1381 7.9884C9.47319 8.2093 8.808 8.41557 8.12663 8.57852C8.07187 8.59176 8.01712 8.60501 7.9607 8.61866C5.98653 9.0779 5.98653 9.0779 5.26025 8.6243C4.88964 8.32779 4.55824 7.97476 4.23262 7.6289C4.19047 7.58438 4.14832 7.53986 4.1049 7.49399C4.06779 7.45405 4.03069 7.4141 3.99246 7.37295C3.82864 7.2256 3.64999 7.1212 3.45996 7.01166C3.47904 7.08554 3.49812 7.15942 3.51777 7.23553C3.58887 7.51127 3.65977 7.78706 3.73055 8.06288C3.76115 8.18195 3.79181 8.30099 3.82256 8.42002C3.8669 8.59171 3.91096 8.76348 3.95498 8.93526C3.9948 9.08999 3.9948 9.08999 4.03542 9.24784C4.13063 9.64848 4.19603 10.0333 4.19919 10.4455C4.20033 10.5138 4.20147 10.5821 4.20264 10.6525C4.1841 10.8372 4.1841 10.8372 4.02318 11.0814C3.6417 10.9713 3.35352 10.8101 3.02749 10.5829C2.94223 10.5239 2.85698 10.4649 2.76914 10.4042C2.70504 10.3591 2.64094 10.314 2.5749 10.2675C2.8717 11.4205 3.1754 12.5358 3.70134 13.6047C3.74687 13.6989 3.79241 13.7931 3.83932 13.8902C4.42368 15.0457 5.19216 15.7769 6.22954 16.5098C6.27144 16.5449 6.31334 16.5801 6.35651 16.6163C6.35651 16.67 6.35651 16.7238 6.35651 16.7791C3.98867 17.1502 3.98867 17.1502 3.05766 16.484C2.68032 16.1785 2.34746 15.8274 2.01169 15.4768C1.9451 15.4118 1.87851 15.3469 1.80991 15.28C1.2584 14.7019 0.850278 13.9703 0.44272 13.2842C0.407852 13.2265 0.372983 13.1687 0.337058 13.1092C0.152124 12.792 -0.00627989 12.5173 0.000191566 12.1396C0.108362 11.9328 0.212226 11.7615 0.347174 11.5749C1.13595 10.4612 0.860385 9.28467 0.700915 8.00382C0.614252 7.30187 0.548934 6.60845 0.547695 5.90042C0.547546 5.84187 0.547397 5.78331 0.547243 5.72298C0.557073 4.71992 0.735776 3.84646 1.43935 3.10818C3.59697 1.07128 7.42356 2.00915 9.89674 2.7791Z" fill="white"/>
<path d="M33.0689 27.7675C33.3099 28.0113 33.3353 28.2705 33.3555 28.6018C33.3384 29.1201 33.161 29.4195 32.8275 29.8024C32.7793 29.8598 32.7311 29.9172 32.6814 29.9763C31.1742 31.5403 28.6437 32.1146 26.6398 32.7179C25.8176 32.9681 25.0156 33.2337 24.3139 33.745C24.2703 33.7766 24.2266 33.8082 24.1817 33.8407C23.7791 34.1358 23.4001 34.4396 23.0667 34.8133C22.5053 35.3284 21.8666 35.5147 21.1256 35.5255C20.969 35.5301 20.969 35.5301 20.8092 35.5347C20.3138 35.5119 19.8565 35.3347 19.3907 35.1745C19.2981 35.1427 19.2055 35.1109 19.11 35.0782C18.9128 35.01 18.7156 34.9417 18.5184 34.8731C17.4009 34.4852 16.2779 34.1446 15.1364 33.8365C8.84578 32.1324 8.84578 32.1324 7.40726 30.0669C7.27733 29.6649 7.24616 29.243 7.32177 28.8256C7.53954 28.5981 7.62428 28.5824 7.94533 28.5662C8.83866 28.7054 9.66544 29.3072 10.3969 29.8136C12.3866 31.182 14.6028 31.962 17.0321 31.5175C18.1259 31.2779 19.354 30.8791 20.3563 30.3721C20.7562 30.3366 21.0122 30.4291 21.3721 30.6011C21.881 30.8351 22.3833 30.9927 22.931 31.1047C23.0206 31.1232 23.1102 31.1416 23.2025 31.1607C25.9931 31.404 28.4009 30.0915 30.7583 28.7355C32.5577 27.703 32.5577 27.703 33.0689 27.7675Z" fill="white"/>
<path d="M2.73552 17.8372C3.50552 17.9177 4.27552 17.9983 5.06885 18.0813C5.33492 18.7991 5.33492 18.7991 5.43438 19.0943C6.03474 20.8376 7.01767 22.2358 8.20678 23.6162C8.25532 23.6745 8.30386 23.7327 8.35387 23.7927C8.64249 24.1364 8.95006 24.4601 9.26282 24.7812C9.30331 24.8232 9.34381 24.8653 9.38553 24.9086C9.62014 25.1464 9.851 25.3214 10.1378 25.4883C10.1224 25.4218 10.1071 25.3552 10.0912 25.2867C9.80936 24.0558 9.54698 22.829 9.37848 21.5763C9.35876 21.4299 9.35876 21.4299 9.33864 21.2807C9.22114 20.358 9.22114 20.358 9.25276 19.9534C9.30586 19.8997 9.35896 19.846 9.41368 19.7906C9.72331 20.5654 10.0092 21.3447 10.2716 22.1372C11.0639 24.5285 12.3931 26.9864 14.724 28.1744C16.0651 28.8196 17.451 29.0257 18.9079 29.2325C18.9079 29.3131 18.9079 29.3937 18.9079 29.4767C17.9223 30.4342 16.2525 31.2654 14.8849 31.3488C14.7174 31.2636 14.7174 31.2636 14.5782 31.1249C14.5239 31.0723 14.4697 31.0196 14.4138 30.9653C14.2934 30.8353 14.176 30.7023 14.0612 30.5673C11.909 28.0373 7.28533 26.8614 4.18379 26.1395C4.17238 25.6513 4.22667 25.189 4.30165 24.7073C4.38488 24.0893 4.25224 23.6105 3.95247 23.0668C3.91285 22.9934 3.87323 22.9199 3.83241 22.8442C3.69906 22.6364 3.55632 22.484 3.3792 22.3139C3.28945 22.2113 3.2006 22.1078 3.11267 22.0036C2.87996 21.7279 2.63228 21.4891 2.35616 21.2583C2.0661 20.7945 2.30701 20.0606 2.40362 19.5566C2.41762 19.481 2.43162 19.4053 2.44605 19.3274C2.53866 18.8298 2.63735 18.3337 2.73552 17.8372Z" fill="white"/>
<path d="M13.0925 0.81188C13.2045 0.81138 13.2045 0.81138 13.3187 0.810869C13.5593 0.810094 13.7998 0.810093 14.0404 0.810291C14.1218 0.810259 14.2032 0.810227 14.2871 0.810194C17.2576 0.811598 17.2576 0.811598 18.0231 1.06974C17.9821 1.50178 17.8737 1.84248 17.6762 2.22962C17.6404 2.30422 17.6404 2.30422 17.604 2.38033C17.4613 2.66598 17.3415 2.87424 17.0576 3.02323C16.8081 3.06838 16.8081 3.06838 16.5246 3.09445C15.7961 3.18723 15.2029 3.41608 14.7243 3.99997C14.267 4.62112 14.1548 5.18942 14.2415 5.95346C14.4135 6.58442 14.7533 7.13231 15.0898 7.68476C15.8766 8.98036 16.169 9.94212 15.8306 11.4527C15.8141 11.5322 15.7976 11.6117 15.7806 11.6936C15.6566 12.262 15.4635 12.7601 15.207 13.279C14.9336 13.1594 14.7525 13.0039 14.5432 12.7907C14.4864 12.7336 14.4296 12.6765 14.371 12.6177C14.2415 12.4651 14.2415 12.4651 14.2415 12.3023C14.1884 12.3023 14.1353 12.3023 14.0806 12.3023C13.9756 12.1913 13.9756 12.1913 13.8493 12.0327C13.3283 11.4138 12.7166 10.8844 12.0892 10.3793C11.4155 9.82755 10.7991 9.20076 10.6208 8.31392C10.5571 7.35278 10.6946 6.4762 10.8974 5.5414C10.937 5.35286 10.9763 5.16425 11.0155 4.97561C11.0396 4.85975 11.0642 4.74396 11.0891 4.62826C11.3389 3.52671 11.3389 3.52671 11.1539 2.44328C11.0333 2.2828 11.0333 2.2828 10.8622 2.20927C10.7249 2.20358 10.5873 2.2024 10.4499 2.20419C10.3766 2.20492 10.3034 2.20565 10.228 2.20641C10.1436 2.20783 10.1436 2.20783 10.0576 2.20927C10.1157 1.88339 10.2568 1.73388 10.5115 1.52473C11.3343 0.963802 12.1227 0.813223 13.0925 0.81188Z" fill="white"/>
<path d="M23.6248 4.95638C24.5745 5.6925 25.2684 6.53249 25.4515 7.75816C25.5383 8.42806 25.5522 9.05077 25.3446 9.69766C25.3165 9.79036 25.3165 9.79036 25.2877 9.88493C24.9103 10.978 24.109 11.8133 23.1169 12.3634C22.1076 12.8386 20.8781 13.1441 19.7929 12.7907C19.0293 12.4667 19.0293 12.4667 18.9078 12.2209C18.9926 12.209 19.0773 12.197 19.1646 12.1847C20.6814 11.9533 22.007 11.4184 23.0113 10.186C23.5597 9.29761 23.6429 8.24416 23.4391 7.22495C23.2341 6.60645 22.9249 6.14479 22.3525 5.83138C22.1074 5.71007 22.0772 5.69869 21.8044 5.79068C21.8548 5.8614 21.9052 5.93212 21.9571 6.00498C22.0236 6.0997 22.09 6.19446 22.1564 6.28923C22.1896 6.3356 22.2228 6.38198 22.257 6.42976C22.6074 6.93285 22.7237 7.33663 22.6486 7.94925C22.5931 8.23221 22.4949 8.46334 22.3676 8.72091C22.1711 8.52211 22.1433 8.37418 22.0659 8.10536C21.86 7.46041 21.5694 6.90735 20.9998 6.52324C20.4098 6.22483 19.3924 6.40992 18.7821 6.59446C18.458 6.68446 18.458 6.68446 18.2642 6.93021C18.2188 7.42105 18.233 7.8084 18.5056 8.23254C18.665 8.42832 18.665 8.42832 18.9732 8.42585C19.204 8.41699 19.3179 8.39157 19.5314 8.2885C19.8039 7.95927 19.9103 7.58081 20.0343 7.1744C20.3511 7.30024 20.5153 7.50086 20.7283 7.76452C20.8219 7.87846 20.8219 7.87846 20.9175 7.99471C21.2068 8.41733 21.318 8.86072 21.2412 9.37208C21.0925 9.81184 20.8621 10.1227 20.517 10.4302C20.4457 10.499 20.3743 10.5679 20.3008 10.6388C19.7136 11.1204 18.9569 11.2893 18.2155 11.2264C17.6792 11.141 17.2901 10.9449 16.9325 10.5294C16.5923 10.0024 16.42 9.31522 16.5208 8.69261C16.9035 7.15537 17.6992 5.7237 19.0688 4.89533C20.5515 4.15008 22.2276 3.9808 23.6248 4.95638Z" fill="white"/>
<path d="M22.8932 0.508566C23.1225 0.592738 23.1863 0.663934 23.3279 0.861173C24.3051 2.04962 25.8168 2.6005 27.2261 3.05813C28.2341 3.39031 29.2238 3.81153 29.8502 4.72236C30.042 5.32865 30.0189 5.86194 29.9155 6.48254C29.9065 6.5385 29.8974 6.59445 29.888 6.65211C29.747 7.41395 29.4276 8.07349 29.0154 8.72091C28.9741 8.78634 28.9328 8.85176 28.8903 8.91917C28.575 9.40986 28.2376 9.88069 27.8839 10.3437C27.8374 10.4049 27.7908 10.466 27.7429 10.5289C27.5044 10.8343 27.2756 11.1055 26.9536 11.3256C26.9005 11.3256 26.8474 11.3256 26.7927 11.3256C26.7873 11.2268 26.7873 11.2268 26.7818 11.1259C26.6283 8.40067 26.4076 5.71188 24.2815 3.75484C23.3484 2.96493 22.3307 2.87703 21.1605 2.94184C19.8256 3.09206 18.4476 3.92233 17.4594 4.81393C17.4328 4.76021 17.4063 4.70649 17.3789 4.65114C17.497 4.48757 17.6161 4.32501 17.7359 4.16277C17.7683 4.11776 17.8006 4.07275 17.8338 4.02637C18.404 3.26025 19.0965 2.80728 19.9335 2.37716C20.8854 1.87318 21.7878 1.37534 22.5459 0.590915C22.6893 0.499981 22.6893 0.499981 22.8932 0.508566Z" fill="white"/>
<path d="M7.08012 10.1046C7.05357 10.6508 6.92812 11.0478 6.6904 11.5386C6.4364 12.0681 6.41965 12.6402 6.59359 13.2005C6.85575 13.7789 7.23317 14.2142 7.66314 14.6675C8.41009 15.4609 8.88351 16.2827 8.93918 17.3882C8.91836 18.0904 8.78081 18.7641 8.44794 19.3837C8.29802 19.3796 8.29802 19.3796 8.1261 19.3023C8.05251 19.1044 7.99927 18.9214 7.95009 18.7173C7.65872 17.6639 7.04228 16.8833 6.34247 16.0694C4.43841 13.852 4.43841 13.852 4.41992 12.7296C4.54209 12.0142 5.08873 11.443 5.55642 10.9237C5.59617 10.8794 5.63593 10.8352 5.67689 10.7896C6.05632 10.3817 6.49548 9.92107 7.08012 10.1046Z" fill="white"/>
</g>
<defs>
<clipPath id="clip0_1416_2645">
<rect width="42" height="35" fill="white" transform="translate(0 0.5)"/>
</clipPath>
</defs>
</svg>
